<?xml version="1.0"?>
<svg version="1.1" xmlns="http://www.w3.org/2000/svg" width="400" height="200" style=""><path fill="#ab7a5f" d="M43.652,92.17l0,0.348l-0.406,3.48c-0.116,1.044-0.754,1.218-1.972,1.218l-14.558,0l0,10.498l13.398,0c1.102,0,1.45,0.464,1.45,1.276l0,3.306c0,0.986-0.406,1.392-1.392,1.392l-13.456,0l0,16.182c0,1.044-0.406,1.45-1.392,1.45l-4.524,0c-1.16,0-1.566-0.29-1.566-1.566l0-37.12c0-0.928,0.406-1.45,1.334-1.45l21.866,0c0.87,0,1.218,0.29,1.218,0.986z M87.007,113.514c0,11.948-5.626,18.502-16.936,18.502c-12.238,0-16.704-6.728-16.704-18.618l0-20.822c0-0.986,0.58-1.392,1.508-1.392l4.582,0c0.986,0,1.392,0.406,1.392,1.392l0,20.184c0,8.526,2.204,12.934,9.512,12.934c7.018,0,9.222-4.64,9.222-12.934l0-20.184c0-0.986,0.522-1.392,1.45-1.392l4.582,0c0.986,0,1.392,0.406,1.392,1.392l0,20.938z M127.462,130.624c0,0.464-0.348,0.696-0.87,0.696l-5.278,0c-1.044,0-1.74-0.29-2.262-1.16l-8.352-13.63l-4.466,0l0,13.34c0,0.87-0.348,1.45-1.334,1.45l-4.756,0c-0.986,0-1.392-0.464-1.392-1.45l0-37.004c0-1.276,0.29-1.682,1.566-1.682l8.584,0c5.046,0,10.382,0.754,13.456,4.292c1.856,2.146,2.784,4.988,2.784,8.12c0,5.336-2.842,9.512-7.482,11.542l9.512,14.674c0.174,0.29,0.29,0.58,0.29,0.812z M117.544,103.712c0-5.046-3.364-6.844-8.41-6.844l-2.9,0l0,14.036l3.596,0c4.64,0,7.714-2.494,7.714-7.192z M170.295,129.754c0,1.276-0.522,1.566-1.392,1.566l-3.886,0c-0.87,0-1.624-0.406-2.204-1.218l-18.908-25.868l-0.116,0l0,25.578c0,1.102-0.522,1.508-1.508,1.508l-4.176,0c-1.102,0-1.566-0.29-1.566-1.45l0-37.12c0-1.218,0.522-1.566,1.566-1.566l3.77,0c0.928,0,1.392,0.29,1.972,1.102l19.082,26.216l0.116,0l0-25.81c0-1.102,0.522-1.508,1.508-1.508l4.35,0c1.218,0,1.392,0.638,1.392,1.566l0,37.004z M197.758,94.838c0,0.928-0.406,1.218-1.218,1.218l-3.306,0l0,30.392l3.132,0c0.812,0,1.218,0.522,1.218,1.218l0,2.494c0,0.696-0.29,1.16-1.044,1.16l-13.804,0c-0.754,0-1.16-0.464-1.16-1.102l0-2.61c0-0.812,0.348-1.16,1.16-1.16l3.074,0l0-30.392l-3.364,0c-0.812,0-1.16-0.406-1.16-1.16l0-2.552c0-0.638,0.348-1.16,1.044-1.16l14.21,0c0.812,0,1.218,0.522,1.218,1.102l0,2.552z"/><path fill="#161717" d="M241.009,102.9l-1.566-6.67s-3.074-1.16-7.424-1.16c-7.83,0-12.18,5.8-12.18,16.53c0,10.44,5.22,15.08,12.47,15.08c6.09,0,11.6-4.64,11.6-4.64l2.32,3.77s-5.8,6.09-14.5,6.09c-11.6,0-18.56-6.96-18.56-20.01c0-13.34,7.54-21.75,19.43-21.75c6.38,0,13.05,2.9,13.05,2.9l-0.29,9.86l-4.35,0z M257.2838,126.738l13.224-35.728l5.8-0.29l12.876,36.018l4.814,1.102l0,3.48l-16.82,0l0-3.48l5.394-1.102l-2.204-6.438l-15.08,0l-2.262,6.438l5.452,1.102l0,3.48l-15.95,0l0-3.48z M278.8018,115.66l-5.858-17.458l-6.09,17.458l11.948,0z M305.5166,126.68l0-31.32l-4.93-1.16l0-3.19l11.02-0.29l6.38,0c8.178,0,13.05,3.944,13.05,10.44c0,5.626-2.552,9.454-7.54,11.31c0.928,0.812,1.972,2.32,3.48,5.22l4.582,9.222l4.118,0.928l0,3.48l-8.7,0l-4.93-10.73c-2.726-5.8-4.002-6.96-7.83-6.96l-2.61,0l0,13.05l4.93,1.16l0,3.48l-15.95,0l0-3.48z M311.6066,109.28l4.35,0c5.684,0,8.99-2.668,8.99-7.25c0-3.886-3.016-6.67-7.25-6.67l-6.09,0l0,13.92z M347.4854,131.32l0-3.48l5.8-1.16l0-31.32l-7.54,0l-1.45,5.8l-3.77,0l0-10.44l31.61,0l0,10.44l-3.77,0l-1.45-5.8l-7.54,0l0,31.32l5.8,1.16l0,3.48l-17.69,0z"/></svg>
